/* XPM */
static char *result[] = {
/* columns rows colors chars-per-pixel */
"32 32 42 1 ",
"  c #AE6575",
". c #AE6675",
"X c #AF6776",
"o c #B8727E",
"O c #B9737E",
"+ c #B9737F",
"@ c #C8858B",
"# c #CE8C90",
"$ c #CE8D91",
"% c #CF8D91",
"& c #CF8E91",
"* c #D89999",
"= c #D99999",
"- c #D9999A",
"; c #D99A9A",
": c #D99B9B",
"> c #DA9B9B",
", c #DB9D9C",
"< c #DB9E9D",
"1 c #DC9E9D",
"2 c #DC9F9D",
"3 c #DCA09E",
"4 c #DDA09E",
"5 c #DDA19F",
"6 c #DEA29F",
"7 c #DEA4A0",
"8 c #DFA4A1",
"9 c #DFA5A2",
"0 c #E0A6A2",
"q c #E1A9A4",
"w c #E2AAA4",
"e c #E2AAA5",
"r c #E3ABA5",
"t c #E5AFA8",
"y c #E5B0A9",
"u c #E6B1A9",
"i c #E7B4AB",
"p c #E8B4AB",
"a c #E8B5AC",
"s c #E8B6AC",
"d c #E9B6AD",
"f c None",
/* pixels */
"ffffffffffffffffffffffffffffffff",
"ffffffffffffffffffffffffffffffff",
"ffffffffffffffffffffffffffffffff",
"ffffffffffffffffffffffffffffffff",
"ffff                        ffff",
"ffffoOOOOOOOOOOOOOOOOOOOOOOoffff",
"ff o@&$####$$$$$$$$$$####$&@o ff",
"ff.+&1566664,>>>>>>,4666651&+.ff",
"X..O&5ryyyye3;;>>;;3eyyyyr5&O..X",
"X..O$6yauuat5=-;;-=5tauuay6$O..X",
"ff.O$6yu99uy5==--==5yu99uy6$O.ff",
"ff.O$6yu97rw2:2552:2wr79uy6$O.ff",
"X..O$6yaur8<;<qttq<;<8ruay6$O..X",
"X..O$4etyw<;<0uddu0<;<wyte4$O..X",
"ff.O$,3552;<quissiuq<;2553,$O.ff",
"ff.+%>;==:20udaaaadu02:==;>%+.ff",
"X..+&>;-*2eupaaaaaapue2*-;>&+..X",
"X..+&>;-*2eupaaaaaapue2*-;>&+..X",
"ff.+%>;==:20udaaaadu02:==;>%+.ff",
"ff.O$,3552;<quissiuq<;2553,$O.ff",
"X..O$4etyw<;<0uddu0<;<wyte4$O..X",
"X..O$6yaur8<;<qttq<;<8ruay6$O..X",
"ff.O$6yu97rw2:2552:2wr79uy6$O.ff",
"ff.O$6yu99uy5==--==5yu99uy6$O.ff",
"X..O$6yauuat5=-;;-=5tauuay6$O..X",
"X..O&5ryyyye3;;>>;;3eyyyyr5&O..X",
"ff.+&1566664,>>>>>>,4666651&+.ff",
"ff o@&$####$$$$$$$$$$####$&@o ff",
"ffffoOOOOOOOOOOOOOOOOOOOOOOoffff",
"ffff                        ffff",
"ffffffffffffffffffffffffffffffff",
"ffffffffffffffffffffffffffffffff"
};
