/* XPM */
static char *result[] = {
/* columns rows colors chars-per-pixel */
"32 32 23 1 ",
"  c #C0D470",
". c #C1D470",
"X c #BFD36F",
"o c #BBD16E",
"O c #B9D06D",
"+ c #C1D570",
"@ c #C1D571",
"# c #B0CA69",
"$ c #AAC666",
"% c #ABC666",
"& c #BAD06D",
"* c #B4CC6A",
"= c #A9C565",
"- c #A3C162",
"; c #A3C163",
": c #A3C263",
"> c #A5C364",
", c #A4C263",
"< c #A5C363",
"1 c #B9CF6D",
"2 c #BCD16E",
"3 c #BFD470",
"4 c white",
/* pixels */
"                                ",
"                                ",
"             ........           ",
"         ..XoOOOOOOOOoX         ",
"         +@o#$$%%%%$$#o+        ",
"       XoO&*=-;::::;-=*oX       ",
"      +o#$%=>::,,,,::<=#o       ",
"     Xo*=-;,,,,,,,,,,:-$O.      ",
"     o#=<::,,,,,,,,,,:;$O.      ",
"    .1$-:,,,,,,,,,,,,:;$O.      ",
"    .1$-:,,,,,,,,,,,,:-$O.      ",
"     o#=<::,,,,,,,,::<=#o       ",
"     Xo*=-;::::::::;-=*oX       ",
"      +o#$$%%%%%%%%%%#2@+       ",
"       XoOOOOOOOOOOO&23@+       ",
"       .+@@+.....+@32&OOOoX     ",
"     ...+@@+.    +@2#%%$$#o+    ",
"   XoOOOOOOoX    Xo*=-;;-=*oX   ",
"  +o#$$%%$$#o+   o#=<::::<=#o   ",
" Xo*=-;::;-=*oX.+1$-:,,,,:-$1.  ",
".o#=<::,,::<=#o++1$-:,,,,:-$1.  ",
"+O$-:,,,,,,:-$1++o#=<::::<=#o   ",
"+O$-:,,,,,,:-$1+.Xo*=-;;-=*oX   ",
".o#=<::,,::<=#o   +o#$$$$#o+    ",
" Xo*=-;::;-=*oX    XoOOOOoX     ",
"  +o#$$%%$$#o+       ....       ",
"   XoOOOOOOoX                   ",
"     ......                     ",
"                                ",
"                                ",
"                                ",
"                                "
};
