/* XPM */
static char *result[] = {
/* columns rows colors chars-per-pixel */
"32 32 117 2 ",
"   c #4F4D91",
".  c #545495",
"X  c #575798",
"o  c #585A99",
"O  c #5D649E",
"+  c #65659A",
"@  c #6A699E",
"#  c #706C9F",
"$  c #6B6DA2",
"%  c #726EA0",
"&  c #6771A7",
"*  c #6F78A4",
"=  c #6772A8",
"-  c #6974A9",
";  c #6D78AE",
":  c #7674A3",
">  c #7874A3",
",  c #727AA5",
"<  c #7C7DA7",
"1  c #767CA9",
"2  c #7C7DA8",
"3  c #6F7DB0",
"4  c #757FB1",
"5  c #7982A7",
"6  c #7680AA",
"7  c #7E86AC",
"8  c #7582B5",
"9  c #7E8BB4",
"0  c #7685B8",
"q  c #7889BB",
"w  c #8080AC",
"e  c #8A86AD",
"r  c #828AAD",
"t  c #8790AF",
"y  c #8489B0",
"u  c #8D8FB1",
"i  c #818FB8",
"p  c #8E94B3",
"a  c #8D98B7",
"s  c #8492BB",
"d  c #8F9BBA",
"f  c #9092B5",
"g  c #9B97B6",
"h  c #939AB5",
"j  c #949DBA",
"k  c #999FB9",
"l  c #9FA1BA",
"z  c #9CAABD",
"x  c #AFB5BF",
"c  c #8CA0C6",
"v  c #99A4C2",
"b  c #92A5CB",
"n  c #97A9CC",
"m  c #9BABCD",
"M  c #A0AAC3",
"N  c #B0AFC3",
"B  c #A1B5C4",
"V  c #ACB2C4",
"C  c #A3B2CC",
"Z  c #ACBAC9",
"A  c #B4B4C5",
"S  c #B4B9C6",
"D  c #B4BBCB",
"F  c #A6B4D1",
"G  c #A8B6D1",
"H  c #ABB9D2",
"J  c #B2BDD3",
"K  c #BCC1C4",
"L  c #B0C0C8",
"P  c #BDC3CC",
"I  c #B6CAC9",
"U  c #B8CDCA",
"Y  c #BDC5D3",
"T  c #B7C9D7",
"R  c #BCC9D8",
"E  c #C0C5C6",
"W  c #C4C4CD",
"Q  c #C4CACA",
"!  c #C0D0CC",
"~  c #CDD5CF",
"^  c #C2C8D3",
"/  c #CCCED2",
"(  c #C6CEDA",
")  c #D0CFD3",
"_  c #C1D6D3",
"`  c #CED2D5",
"'  c #C5DAD5",
"]  c #CBDBD5",
"[  c #C5D1DA",
"{  c #CED5DC",
"}  c #C9DFDD",
"|  c #D1D3D5",
" . c #D5DCD2",
".. c #D0D7DD",
"X. c #D5DADB",
"o. c #DBDDDC",
"O. c #CBE1DE",
"+. c #DEE2D3",
"@. c #D3E3DF",
"#. c #DFE4DD",
"$. c #E1E5D5",
"%. c #E4E7D8",
"&. c #E5E8D9",
"*. c #E9EBDD",
"=. c #CEE3E0",
"-. c #D4E5E0",
";. c #DCE1E0",
":. c #DAE9E2",
">. c #E1E6E3",
",. c #E4EDE4",
"<. c #E9ECE3",
"1. c #E7F2E6",
"2. c #ECF1E5",
"3. c #F3F4E7",
"4. c #F5F6E8",
"5. c #F9FAEA",
"6. c None",
/* pixels */
"6.6.6.6.6.6.6.6.6.6.6.6.6.6.6.6.6.6.6.6.6.6.6.6.6.6.6.6.6.6.6.6.",
"6.6.6.6.6.6.6.6.6.6.6.6.6.6.6.6.6.6.6.6.6.6.6.6.6.6.6.6.6.6.6.6.",
"6.6.6.6.6.6.6.6.6.6.4.5.5.5.5.5.5.5.5.5.5.5.6.6.6.6.6.6.6.6.6.6.",
"6.6.6.6.6.6.6.6.6.| / / / / / / / / / / / / | 6.6.6.6.6.6.6.6.6.",
"6.6.6.6.6.6.6.5.X.l 5 1 2 2 2 2 2 2 2 < : : g | 5.6.6.6.6.6.6.6.",
"6.6.6.6.6.6.#.| A y $ o O + O O O O O o . . < A | o.6.6.6.6.6.6.",
"6.6.6.6.6.3.W p 1 8 q q q q q q q 0 3 - = = & @ e W 3.6.6.6.6.6.",
"6.6.6.6.6.3.W u 1 4 0 0 0 0 0 0 0 8 3 = & = & @ e W 3.6.6.6.6.6.",
"6.6.6.6.6.6.6.| A w o . X X X o o . . .   . 5 A / 6.6.6.6.6.6.6.",
"6.6.6.6.6.6.6.>.^ f $ $ % $ @ @ @ @ @ @ + + u ^ >.6.6.6.6.6.6.6.",
"6.6.6.6.6.3.X.H C C Z P W W Z Z Z Z Z Z x z v C J ..3.6.6.6.6.6.",
"6.6.6.6.6.3.{ m b R :.<.1.,.-.=.=.O.@.O._ I B c m { 3.6.6.6.6.6.",
"6.6.6.6.6.3.{ m m [ 1.1.:.-.=.=.O.O.=.O._ I B c m { 3.6.6.6.6.6.",
"6.6.6.6.6.3.{ m n [ ,.:.} } =.} O.O.O.O._ I B c m { 3.6.6.6.6.6.",
"6.6.6.6.6.3.{ m b T -.-.} } } } O.O.O.O._ I B c m ..4.6.6.6.6.6.",
"6.6.6.6.>.o.( H H [ =.-.:.-.-.-.@.@.@.O.] ! Z C F ^ X.;.6.6.6.6.",
"6.6.6.2.( G J [ ;.,.1.2.<.2.2.2.2.1.1.<.#. .] ~ K M n Y <.6.6.6.",
"6.6.5.<.R b F ;.4.5.3.3.3.3.3.4.4.4.3.3.*.+.$.+.Q d 9 D <.5.6.6.",
"6.6.5.<.^ b F ;.4.4.4.3.3.3.3.3.3.3.4.3.*.+.+.+.Q j 9 D <.5.6.6.",
"6.6.5.<.Y c C ;.4.4.3.3.4.3.3.3.3.3.3.3.*.+.+.+.Q a 9 D <.5.6.6.",
"6.6.5.2.Y s v X.4.4.4.3.4.3.3.4.4.3.4.3.*.+.+.+.Q t 1 V <.5.6.6.",
"6.6.5.<.J 9 v X.4.4.4.4.3.3.3.3.3.3.3.3.*.+.+.+.E r , V <.5.6.6.",
"6.6.5.<.D s l X.4.4.4.4.3.3.3.3.3.3.5.3.*.+.+.+.E r , V <.5.6.6.",
"6.6.5.<.D i v X.4.3.3.3.4.3.3.3.4.3.3.*.&.+.+.+.E r , A <.5.6.6.",
"6.6.5.<.J i v X.4.4.3.3.3.3.3.3.3.3.*.$.+.+.+.+.E t , V *.5.6.6.",
"6.6.5.<.D y j X.5.5.4.3.2.3.2.3.3.2.&.+.+.+.$.$.E r * x <.5.6.6.",
"6.6.5.<.V 1 f X.5.5.3.<.&.%.%.%.$.%.+.+.+.+.$.$.E r * x <.5.6.6.",
"6.6.6.<.D h l D ` ` ` Q K K K K K K K K K K K K x h h S <.6.6.6.",
"6.6.6.6.o.| D h 7 5 7 7 5 5 5 5 5 5 5 5 5 5 5 < p S | o.6.6.6.6.",
"6.6.6.6.6.4./ h 7 7 r r y 7 y 7 r r r r r r 7 r j / 4.6.6.6.6.6.",
"6.6.6.6.6.6.6.| ` ` ` ` ` ` ` ` ` ` ` ` ` ` ` ` | 6.6.6.6.6.6.6.",
"6.6.6.6.6.6.6.5.5.3.5.5.5.5.5.4.5.5.4.5.5.5.3.5.5.6.6.6.6.6.6.6."
};
