/* XPM */
static char *ccf5468c8c36470fd13ec51f6e36d706Yi6OQnMmrCgzq3aD[] = {
/* columns rows colors chars-per-pixel */
"32 32 228 2 ",
"   c None",
".  c #EDE478",
"X  c #52438E",
"o  c #55468F",
"O  c #55478F",
"+  c #56478F",
"@  c #574991",
"#  c #574A90",
"$  c #584991",
"%  c #584A90",
"&  c #584A91",
"*  c #584B91",
"=  c #594B91",
"-  c #5C4E92",
";  c #7D6698",
":  c #7E6A99",
">  c #7B6A9C",
",  c #7D6B9D",
"<  c #7D6C9D",
"1  c #7A709F",
"2  c #7C719C",
"3  c #7C719D",
"4  c #7F719C",
"5  c #7D729C",
"6  c #7D739C",
"7  c #7C719E",
"8  c #7E749C",
"9  c #7F749C",
"0  c #6E64A9",
"q  c #6E64AA",
"w  c #7568A2",
"e  c #7669A2",
"r  c #776BA3",
"t  c #746BA6",
"y  c #786BA3",
"u  c #796DA1",
"i  c #7A6EA2",
"p  c #786BA4",
"a  c #796CA4",
"s  c #7A6EA4",
"d  c #7A6EA5",
"f  c #786FA6",
"g  c #7067A9",
"h  c #7067AA",
"j  c #7167AA",
"k  c #7970AB",
"l  c #80709E",
"z  c #80749D",
"x  c #80759D",
"c  c #80769D",
"v  c #81769D",
"b  c #82779D",
"n  c #877E9F",
"m  c #8373A2",
"M  c #887FA0",
"N  c #B6AD8B",
"B  c #8780AB",
"V  c #8F85AB",
"C  c #8981AF",
"Z  c #8A82AF",
"A  c #9188A2",
"S  c #978EA4",
"D  c #928AAB",
"F  c #9089AF",
"G  c #918AAF",
"H  c #928BAF",
"J  c #938CAF",
"K  c #988FAB",
"L  c #988EAC",
"P  c #9990A4",
"I  c #9990A5",
"U  c #9D94A5",
"Y  c #9189B0",
"T  c #918AB0",
"R  c #928BB0",
"E  c #948CB0",
"W  c #958EB0",
"Q  c #A9A2A1",
"!  c #B6B0AD",
"~  c #B6B1AE",
"^  c #ABA5B0",
"/  c #ADA7B3",
"(  c #B6A0B0",
")  c #B7B2B1",
"_  c #BCB7B9",
"`  c #C499A5",
"'  c #C7A6A9",
"]  c #C8A7A9",
"[  c #CBBEB1",
"{  c #CDB4B8",
"}  c #CEB5B8",
"|  c #CEBBB9",
" . c #CFBCB8",
".. c #E9B3AB",
"X. c #EBB4AC",
"o. c #D7CE82",
"O. c #D1CA91",
"+. c #E6DE86",
"@. c #EEE681",
"#. c #EEE787",
"$. c #EEE788",
"%. c #F2EA82",
"&. c #E8E295",
"*. c #F0EB96",
"=. c #F0EB97",
"-. c #D5D1AE",
";. c #DAD6AA",
":. c #DBD7AF",
">. c #CDC0B1",
",. c #CFC6B6",
"<. c #CCC8B5",
"1. c #CDC9B5",
"2. c #CDCAB5",
"3. c #CECAB5",
"4. c #CECBB5",
"5. c #CFCBB5",
"6. c #CFCCB5",
"7. c #CAC5BB",
"8. c #CBC6BB",
"9. c #D0CCB5",
"0. c #D3CBBA",
"q. c #D5D1B7",
"w. c #D5D2B7",
"e. c #D7D4B7",
"r. c #D9D5B7",
"t. c #D9D6B7",
"y. c #DDD9B0",
"u. c #D3D0BA",
"i. c #D3D0BB",
"p. c #D4D1BB",
"a. c #D5D2BA",
"s. c #D5D2BB",
"d. c #D5D3BB",
"f. c #D6D4BA",
"g. c #D4D1BC",
"h. c #D8D5B8",
"j. c #DEDCBC",
"k. c #EBC3B0",
"l. c #ECC4B1",
"z. c #EDC4B1",
"x. c #EEC6B1",
"c. c #EFC7B2",
"v. c #EDCFB4",
"b. c #F0C8B2",
"n. c #E1DFBD",
"m. c #F1D4B6",
"M. c #F5F1A0",
"N. c #F4F1AE",
"B. c #F4F2AF",
"V. c #E9E7BD",
"C. c #EDEBBD",
"Z. c #EDEBBE",
"A. c #EDECBE",
"S. c #F1E4BB",
"D. c #F2E5BC",
"F. c #F1E7BC",
"G. c #F3E6BC",
"H. c #F4E7BC",
"J. c #F6E9BD",
"K. c #F7EBBD",
"L. c #F3EFBE",
"P. c #F7EDBE",
"I. c #F4F2B3",
"U. c #F5F2B3",
"Y. c #F5F2B4",
"T. c #F1F0BF",
"R. c #F4F3BF",
"E. c #F5F4BC",
"W. c #A89EC0",
"Q. c #A99EC0",
"!. c #BCB2CB",
"~. c #BCB3CB",
"^. c #BCB3CC",
"/. c #BFB5CD",
"(. c #C2BAC6",
"). c #C3BBC7",
"_. c #CBC4C9",
"`. c #CCC5CA",
"'. c #DDD5DE",
"]. c #DCD4DF",
"[. c #DFD7DF",
"{. c #E2DBD7",
"}. c #E2DCD7",
"|. c #E4DED8",
" X c #E5DFD8",
".X c #E6E5C3",
"XX c #E7E4C4",
"oX c #EEEBC7",
"OX c #EFEDC5",
"+X c #EEECC8",
"@X c #EFEDC8",
"#X c #FBE5C6",
"$X c #F8E8C4",
"%X c #F3F2C0",
"&X c #F3F3C0",
"*X c #F2F0C2",
"=X c #F4F3C0",
"-X c #F6F3C1",
";X c #F7F1C2",
":X c #F4F4C0",
">X c #F5F4C0",
",X c #F5F4C1",
"<X c #F5F5C1",
"1X c #F6F5C0",
"2X c #F6F5C1",
"3X c #F5F6C1",
"4X c #F6F6C0",
"5X c #F7F6C1",
"6X c #F7F7C1",
"7X c #F7F7C2",
"8X c #F8F2C2",
"9X c #FAF2C3",
"0X c #FAF6C1",
"qX c #F8F7C2",
"wX c #FAF3C4",
"eX c #F8F8C1",
"rX c #F3F0CA",
"tX c #F4F1CA",
"yX c #F6F4CB",
"uX c #F8F6CB",
"iX c #E6E1D1",
"pX c #EAE4DB",
"aX c #EBE5DB",
"sX c #ECE6DC",
"dX c #DED6E0",
"fX c #DFD7E0",
"gX c #E0D8E0",
"hX c #E0D8E1",
/* pixels */
"            @ @ $ $ @ @                 $ $ @ @ @ @             ",
"            6 c c c z 6                 6 c z c c 6             ",
"        $ 6 ~ 6.9.4.9.~ 6 @         @ 6 ! 9.4.4.4.~ 6 $         ",
"        $ 6 >.K.K.P.E.9.6 @         O 6 9.9XL.K.K.[ z $         ",
"        $ : ] b.x.m.K.9.8 O + $ $ + @ 6 4.L.m.x.b.] : @         ",
"        $ ; ` X...z.G.u.K a a s a a p L f.G.k.X.X.` ; *         ",
"        $ ; ` X...z.V..X_.~.~.~.~.^.^.`.XXS.k.X.X.` ; =         ",
"        $ : ' x.z.v.G.oXpXfXgXgX{.hXhX X@XG.v.k.x.' : $         ",
"        @ 4 [ G.G.C.L.oX|.dXdXdXdX{.'.|.oXL.C.S.K.[ < %         ",
"        @ c 4.7X7XR.R.oX{.].'.'.dX'.'.{.oXR.R.7X7X<.c @         ",
"        @ c 4.7X%X%XR.oX{.].dX'.dXdX'.{.oXR.&X7X7X<.c @         ",
"        @ 8 ,.7X0XR.R.OXiX{.{.}.{.'.{. XOX%X%X7X7X<.c %         ",
"    - = = 9 4.7X0X7XR.*XoXoXoXoXoXoXoXOX*XR.%X0X0X4.c $ = -     ",
"    - = @ b 6.A.e.u.V.R.R.R.R.R.R.R.R.R.7XV.q.t.A.9.c $ = -     ",
"        $ b 9.h.P S q.7XR.%X%X%X&X&XR.R.7X9.S P f.9.b $         ",
"        $ b 9.h.P S q.7X%X%X%X%X&X&XR.%X7Xq.S P t.9.b $         ",
"    - = $ c 9.Z.e.q.V.R.%X%X&X&X*X%X%X%X%XV.u.t.Z.4.c $ = -     ",
"    - $ $ z ,.0X9X9X%X7X7X%X&X&XR.R.R.7X%X0X0X9X9X,.c $ = -     ",
"        $ z  .#X#X$X9XeXR.7X7X7X7X7X0XR.6X%X$X#X#X .l $         ",
"        $ , ( { } | 0.u.u.u.i.i.0.u.s.u.u.0.| { } ( , $         ",
"            > < , m V L W E E T G J J W W V m , < >             ",
"            e a 1 1 t h h s M A D Z k 0 g t 1 1 a e             ",
"        = r W.).7.) B 0 0 n N O.-._ Z 0 0 B ) 7.).W.a %         ",
"        $ s /.sXuXn./ Y Y Q o.%.M.y.^ F G / V.tXsX~.s $         ",
"        $ a /.pXyXR.j.u.s.;.+.. @.&.y.d.u.j.R.yXsX(.s $         ",
"        = a / ).7.f.V.6X6XY.=.$.$.=.Y.eXR.C.e.7.).W.y $         ",
"            t p < U h.yX6XR.I.B.N.I.R.E.eXt.U 1 s e             ",
"            $ @ @ 6 7.rXtXXXu.4.4.u..XtXtX8.4 O @ @             ",
"                + i ).pXpX`.L 6 6 L _.pXpX(.a +                 ",
"                + a / /./.W.w X X w W././.W.a %                 ",
"                    y s s r         p s s a                     ",
"                    $ % $ $         $ $ = $                     "
};
