/* XPM */
static char *_4275f2907944516f2d2158165d375d9wMbyDVvxFIsGMDzf[] = {
/* columns rows colors chars-per-pixel */
"32 32 148 2 ",
"   c None",
".  c #5C7778",
"X  c #5E7878",
"o  c #7D6A75",
"O  c #617E79",
"+  c #7D7777",
"@  c #7D7778",
"#  c #90496F",
"$  c #954E71",
"%  c #845B73",
"&  c #8D5E74",
"*  c #965072",
"=  c #9B5374",
"-  c #A15771",
";  c #A55971",
":  c #A85B72",
">  c #8C6276",
",  c #946477",
"<  c #9A6C75",
"1  c #946578",
"2  c #946A79",
"3  c #877379",
"4  c #8F7A7D",
"5  c #9F7176",
"6  c #967D79",
"7  c #AD6276",
"8  c #A66678",
"9  c #AB6578",
"0  c #B06778",
"q  c #B2697A",
"w  c #A07177",
"e  c #A37579",
"r  c #A77879",
"t  c #AA7979",
"y  c #63817A",
"u  c #6A877D",
"i  c #66897A",
"p  c #6B8B7D",
"a  c #738579",
"s  c #72897A",
"d  c #7C8A7C",
"f  c #6E957C",
"g  c #6E987C",
"h  c #71977E",
"j  c #7C917E",
"k  c #749C7F",
"l  c #818D7C",
"z  c #94807F",
"x  c #80957E",
"c  c #A48A7F",
"v  c #BB7480",
"b  c #C47D83",
"n  c #C37D88",
"m  c #6F8D80",
"M  c #708E80",
"N  c #769381",
"B  c #789782",
"V  c #769E80",
"C  c #7C9D83",
"Z  c #77A181",
"A  c #7BA182",
"S  c #998481",
"D  c #948C82",
"F  c #8C9883",
"G  c #939E85",
"H  c #B19482",
"J  c #80A285",
"K  c #8DA286",
"L  c #86AC86",
"P  c #8BAD8A",
"I  c #94A187",
"U  c #99A386",
"Y  c #94A688",
"T  c #99A489",
"R  c #96A989",
"E  c #9AAE8C",
"W  c #8DB38A",
"Q  c #92B58C",
"!  c #9CB48C",
"~  c #96BC8E",
"^  c #98BE8F",
"/  c #A1AE8D",
"(  c #A6B48F",
")  c #AAB58F",
"_  c #AFB98F",
"`  c #B7BD8F",
"'  c #BBBF8F",
"]  c #A7BB92",
"[  c #AABC92",
"{  c #BBBF90",
"}  c #C68085",
"|  c #C7838C",
" . c #C9858C",
".. c #D18E90",
"X. c #98C08F",
"o. c #9DC291",
"O. c #A4C592",
"+. c #AAC792",
"@. c #A4CA95",
"#. c #AACA96",
"$. c #BDC892",
"%. c #AAD097",
"&. c #AFD69A",
"*. c #AED79A",
"=. c #AFD79A",
"-. c #AED69A",
";. c #AED499",
":. c #ACD398",
">. c #AFD99A",
",. c #B0D498",
"<. c #B1D699",
"1. c #B2D699",
"2. c #B3D799",
"3. c #B0D79A",
"4. c #B1D99B",
"5. c #B2D89A",
"6. c #B2D99A",
"7. c #B3D99A",
"8. c #B3D89A",
"9. c #B3DA9A",
"0. c #B3DA9B",
"q. c #B7D999",
"w. c #B4D89A",
"e. c #B5D99A",
"r. c #B4D99A",
"t. c #B5DA9A",
"y. c #B7DB9A",
"u. c #B9DB9A",
"i. c #BADB9A",
"p. c #BADD9A",
"a. c #BADE9B",
"s. c #BBDF9B",
"d. c #BEDD9A",
"f. c #BDDE9A",
"g. c #BEDE9A",
"h. c #BFDE9A",
"j. c #BEDF9A",
"k. c #BFDF9A",
"l. c #BEE09B",
"z. c #BFE09B",
"x. c #BEE19B",
"c. c #C1D998",
"v. c #C1E09A",
"b. c #C0E09B",
"n. c #C4E19A",
"m. c #C4E29B",
"M. c #C5E29B",
"N. c #C5E39B",
/* pixels */
"                    X . . . . . . . . . . .                     ",
"                    u m m N N N N N M M m m                     ",
"            X . . u J P ~ ^ +.#.#.O.O.~ P A u . . .             ",
"            u p m C Q O.%.e.c.N.N.c.w.%.@.Q B m m u             ",
"        . u C P ~ o.@.:.:.w.z.N.N.c.8.;.%.@.o.~ P C u .         ",
"        u B Q #.3.t.w.3.3.3.a.c.b.b.y.8.e.8.0.:.@.Q B u         ",
"    . u C Q O.;.p.c.h.i.3.,.3.i.c.b.z.z.z.p.8.;.*.@.Q J u X     ",
"    . m P @.%.8.b.n.c.d.w.:.:.3.z.h.$.{ $.` _ ) ( ) ^ P u .     ",
"    . M ~ :.:.w.h.n.n.h.w.:.:.w.z.$.H t t t t w 2 S R P m .     ",
"    u C o.8.3.3.a.h.h.p.w.;.:.w.a.` t : 7 0 7 : # > R Q B u     ",
". m F Q @.3.8.8.8.0.8.8.3.*.;.*.0._ e 7 n  .q 0 $ > ( @.Q C u X ",
". m L o.@.#.[ _ ] ) ) ) ( ] %.;.;.( 5 9 | ..n q * > / %.O.P p X ",
". m P ^ o./ S t e e r w 2 S ] 0.0.( 2 = v n b q * > T o.o.P m . ",
". u P ^ ^ T < : 7 0 7 - # 2 ! *.;.] S 1 8 0 0 8 1 4 T Q W A u . ",
". u L ^ ^ U 5 7 n  .v 7 $ > T o.%.@.E D , $ $ , D R ~ P N u     ",
". m A W ~ I < 9 | ..} q * > G o.@.@.o.Y 4 > > 4 R o.^ W N u     ",
"    u B W I 1 = q } b q $ > G X.o.o.X.Q Y I G Y Q ^ ~ Q Q J p X ",
"    O p W R 4 , 0 q 0 8 1 6 Y ^ ^ ~ ^ ~ X.~ ~ X.^ ^ ~ ~ Q J u O ",
"O O i k W Q Y D 2 = * , D Y ~ ^ ^ ~ ~ ^ ~ X.X.X.~ ~ ^ Q J h O O ",
"O O f k L Q ~ Y 3 % > 4 K W U U U U U U I Y W W W W W L k u O O ",
". O p h k L Q W j d F K A x z w 5 5 e 5 1 3 j k k k k k h i y X ",
"O O f h g k L L k k L L A l < : 7 0 7 ; # % d Z k k h f h f y O ",
"X y p f g h k k g g Z A L I w 7 |  .q 7 $ > F W ~ L k f h i y X ",
"X y i f f h k Z A k k k L G < 7 | .. .q * > F W ~ L k f f u O O ",
"    y y f k L W W L k h Z d & = q b b q = % d k k k h i i O     ",
"    X y p k L Q Q L k g f s o & 0 q q 8 & o s f g k f f y O     ",
"        f h k A A k h f f f s + > = = & + s h f g f g f         ",
"        f g f f f f g f f g g s o % % o s g g f f f f f         ",
"                f f f f f h f f s a a a f f f f                 ",
"                f f h g f f f g g g g f h f h f                 ",
"                                                                ",
"                                                                "
};
